<?xml version="1.0" encoding="utf-8"?>
<!-- Generator: Adobe Illustrator 23.0.3, SVG Export Plug-In . SVG Version: 6.00 Build 0)  -->
<svg version="1.1" id="Layer_1" xmlns="http://www.w3.org/2000/svg" xmlns:xlink="http://www.w3.org/1999/xlink" x="0px" y="0px"
	 viewBox="0 0 150 150" style="enable-background:new 0 0 150 150;" xml:space="preserve">
<style type="text/css">
	.st0{fill:#333333;}
</style>
<g id="Group_160" transform="translate(-295.204 -242.315)">
	<g id="Group_141" transform="translate(367.278 254.468)">
		<path id="Path_45" class="st0" d="M39.3,113.8c-0.7,0-1.4-0.5-1.5-1.3c-2.1-12.3-9.2-20-16.2-27.4C14.1,77,6.9,69.3,6.9,56.6
			c0-17.9,14.5-32.4,32.4-32.4c17.9,0,32.4,14.5,32.4,32.4c0,12.7-7.2,20.3-14.7,28.5c-6.9,7.5-14.1,15.2-16.2,27.4
			C40.7,113.3,40.1,113.8,39.3,113.8z M39.3,27.3C23.1,27.3,10,40.4,10,56.6c0,11.4,6.8,18.7,13.9,26.4c6,6.5,12.3,13.2,15.4,22.9
			c3.2-9.7,9.4-16.4,15.5-22.9c7.2-7.7,13.9-14.9,13.9-26.4C68.7,40.4,55.5,27.3,39.3,27.3z"/>
	</g>
	<g id="Group_142" transform="translate(386.943 272.836)">
		<path id="Path_46" class="st0" d="M19.7,49.4c-6.9,0-12.4-5.6-12.4-12.4c0-6.9,5.6-12.4,12.4-12.4c6.9,0,12.4,5.6,12.4,12.4
			c0,0,0,0,0,0C32.1,43.8,26.5,49.4,19.7,49.4z M19.7,27.6c-5.2,0-9.3,4.2-9.3,9.3c0,5.2,4.2,9.3,9.3,9.3c5.2,0,9.3-4.2,9.3-9.3
			C29,31.8,24.8,27.6,19.7,27.6L19.7,27.6z"/>
	</g>
	<g id="Group_147" transform="translate(295.204 339.514)">
		<g id="Group_143" transform="translate(7.524)">
			<rect id="Rectangle_32" x="5.8" y="25.7" class="st0" width="116" height="3.1"/>
		</g>
		<g id="Group_144" transform="translate(125.503)">
			<rect id="Rectangle_33" x="7.9" y="25.7" class="st0" width="3.8" height="3.1"/>
		</g>
		<g id="Group_145" transform="translate(132.555)">
			<rect id="Rectangle_34" x="8" y="25.7" class="st0" width="3.8" height="3.1"/>
		</g>
		<g id="Group_146">
			<rect id="Rectangle_35" x="5.6" y="25.7" class="st0" width="3.8" height="3.1"/>
		</g>
	</g>
	<g id="Group_148" transform="translate(314.99 296.986)">
		<path id="Path_47" class="st0" d="M84.5,71.3H71.8v-31l-0.9-1l-18.1-0.2v32.2H6l0-44.8C6,25.7,6.7,25,7.5,25l0,0
			c0.8,0,1.5,0.7,1.5,1.5l0,41.7h40.6V36l22.6,0.3l2.5,2.9v29.1h6.6l0-17.3c0-0.8,0.7-1.5,1.5-1.5l0,0c0.8,0,1.5,0.7,1.5,1.5
			L84.5,71.3z M41.6,56.5H21.1V36h20.5V56.5z M24.1,53.4h14.3V39.1H24.1V53.4z"/>
	</g>
	<g id="Group_149" transform="translate(329.808 307.866)">
		<path id="Path_48" class="st0" d="M26.7,45.6H6.3V25.2h20.5V45.6z M9.3,42.6h14.3V28.2H9.3V42.6z"/>
	</g>
	<g id="Group_159" transform="translate(305.23 242.315)">
		<g id="Group_150" transform="translate(56.191 46.815)">
			<path id="Path_49" class="st0" d="M16.8,35.8c-5.7-0.6-10-5.3-9.9-11h3.1c0,4.1,3.1,7.5,7.2,8L16.8,35.8z"/>
		</g>
		<g id="Group_151" transform="translate(37.461 46.815)">
			<path id="Path_50" class="st0" d="M17.6,35.9c-6.1,0-11.1-5-11.1-11.1h3.1c0,4.4,3.6,8,8,8c4.4,0,8-3.6,8-8h3.1
				C28.6,30.9,23.7,35.9,17.6,35.9z"/>
		</g>
		<g id="Group_152" transform="translate(18.731 46.815)">
			<path id="Path_51" class="st0" d="M17.2,35.9c-6.1,0-11.1-5-11.1-11.1h3.1c0,4.4,3.6,8,8,8c4.4,0,8-3.6,8-8h3.1
				C28.3,30.9,23.3,35.9,17.2,35.9z"/>
		</g>
		<g id="Group_153" transform="translate(0.001 33.124)">
			<path id="Path_52" class="st0" d="M16.9,49.6c-6.1,0-11.1-5-11.1-11.1V24.6h3.1v13.9c0,4.4,3.6,8,8,8c4.4,0,8-3.6,8-8H28
				C28,44.6,23,49.6,16.9,49.6z"/>
		</g>
		<g id="Group_154" transform="translate(18.73 44.228)">
			<rect id="Rectangle_36" x="6.2" y="24.8" class="st0" width="3.1" height="3.3"/>
		</g>
		<g id="Group_155" transform="translate(37.46 44.228)">
			<rect id="Rectangle_37" x="6.5" y="24.8" class="st0" width="3.1" height="3.3"/>
		</g>
		<g id="Group_156" transform="translate(56.192 44.228)">
			<rect id="Rectangle_38" x="6.8" y="24.8" class="st0" width="3.1" height="3.3"/>
		</g>
		<g id="Group_157" transform="translate(0 10.654)">
			<path id="Path_53" class="st0" d="M72.6,48.6H7.4c-0.8,0-1.5-0.7-1.5-1.5c0-0.4,0.1-0.7,0.4-1l18.4-21.3c0.3-0.3,0.7-0.5,1.2-0.5
				h58.5c0.5,0,1,0.2,1.3,0.7l3.3,4.8c0.5,0.7,0.3,1.6-0.3,2.1c-0.7,0.5-1.6,0.3-2.1-0.3c0,0,0,0,0,0l-2.9-4.1h-57L10.7,45.5h61.8
				c0.8,0,1.5,0.7,1.5,1.5C74.1,47.9,73.4,48.6,72.6,48.6C72.6,48.6,72.6,48.6,72.6,48.6L72.6,48.6z"/>
		</g>
		<g id="Group_158" transform="translate(18.095)">
			<path id="Path_54" class="st0" d="M67,37.9H6.1V24H67L67,37.9z M9.2,34.8H64v-7.8H9.2V34.8z"/>
		</g>
	</g>
</g>
</svg>
