<?xml version="1.0" encoding="utf-8"?>
<!-- Generator: Adobe Illustrator 23.0.4, SVG Export Plug-In . SVG Version: 6.00 Build 0)  -->
<svg version="1.1" id="Layer_1" xmlns="http://www.w3.org/2000/svg" xmlns:xlink="http://www.w3.org/1999/xlink" x="0px" y="0px"
	 viewBox="0 0 150 150" style="enable-background:new 0 0 150 150;" xml:space="preserve">
<style type="text/css">
	.st0{fill:#FFFFFF;}
</style>
<g id="Group_181" transform="translate(-500.844 -175.275)">
	<g id="Group_161" transform="translate(593.6 226.55)">
		<path id="Path_55" class="st0" d="M31.7,74.7H6.5V24.9h12.6c3.3,0,12.6,9.3,12.6,12.6V74.7z M9.6,71.6h19V37.5
			c-0.3-1.9-7.6-9.2-9.5-9.4H9.6V71.6z"/>
	</g>
	<g id="Group_162" transform="translate(566.555 228.757)">
		<path id="Path_56" class="st0" d="M12.4,34.3H9.3v-6.2H6V25h6.5L12.4,34.3z"/>
	</g>
	<g id="Group_163" transform="translate(577.093 228.757)">
		<path id="Path_57" class="st0" d="M17,34.3h-3.1v-6.2H9.3v6.2H6.2V25H17V34.3z"/>
	</g>
	<g id="Group_164" transform="translate(568.753 209.795)">
		<path id="Path_58" class="st0" d="M16.9,34h-3.1v-6.2H9.1V34H6v-9.3h10.9V34z"/>
	</g>
	<g id="Group_165" transform="translate(562.217 241.846)">
		<path id="Path_59" class="st0" d="M16.8,34.5h-3.1v-6.2H9v6.2H5.9v-9.3h10.9V34.5z"/>
	</g>
	<g id="Group_166" transform="translate(577.093 241.846)">
		<path id="Path_60" class="st0" d="M17,34.5h-3.1v-6.2H9.3v6.2H6.2v-9.3H17V34.5z"/>
	</g>
	<g id="Group_167" transform="translate(562.217 254.934)">
		<path id="Path_61" class="st0" d="M16.8,34.8h-3.1v-6.2H9v6.2H5.9v-9.3h10.9V34.8z"/>
	</g>
	<g id="Group_168" transform="translate(577.093 254.934)">
		<path id="Path_62" class="st0" d="M17,34.8h-3.1v-6.2H9.3v6.2H6.2v-9.3H17V34.8z"/>
	</g>
	<g id="Group_169" transform="translate(600.653 241.846)">
		<path id="Path_63" class="st0" d="M17.5,34.5h-3.1v-6.2H9.7v6.2H6.6v-9.3h10.9V34.5z"/>
	</g>
	<g id="Group_170" transform="translate(600.653 254.934)">
		<path id="Path_64" class="st0" d="M17.5,34.8h-3.1v-6.2H9.7v6.2H6.6v-9.3h10.9V34.8z"/>
	</g>
	<g id="Group_171" transform="translate(572.579 175.275)">
		<rect id="Rectangle_39" x="6.1" y="24" class="st0" width="3.1" height="12.1"/>
	</g>
	<g id="Group_174" transform="translate(500.844 186.447)">
		<g id="Group_172">
			<path id="Path_65" class="st0" d="M37.6,114.8c-0.8,0-1.4-0.5-1.5-1.3c-2.1-12.4-9.3-20.2-16.4-27.8C12,77.6,4.8,69.8,4.8,57
				c0-18.1,14.7-32.8,32.8-32.8S70.4,38.9,70.4,57c0,12.8-7.2,20.6-14.9,28.8c-7,7.5-14.3,15.3-16.4,27.8
				C39,114.3,38.3,114.8,37.6,114.8z M37.6,27.3C21.2,27.3,7.9,40.6,7.9,57c0,11.6,6.8,18.9,14.1,26.7c6.1,6.6,12.4,13.3,15.6,23.1
				c3.2-9.8,9.5-16.6,15.6-23.1c7.2-7.8,14.1-15.1,14.1-26.7C67.3,40.6,54,27.3,37.6,27.3L37.6,27.3z"/>
		</g>
		<g id="Group_173" transform="translate(19.884 18.573)">
			<path id="Path_66" class="st0" d="M17.7,49.6c-6.9,0-12.5-5.6-12.5-12.5s5.6-12.5,12.5-12.5s12.5,5.6,12.5,12.5
				S24.6,49.6,17.7,49.6z M17.7,27.6c-5.2,0-9.4,4.2-9.4,9.4s4.2,9.4,9.4,9.4s9.4-4.2,9.4-9.4l0,0C27.1,31.9,22.9,27.6,17.7,27.6
				L17.7,27.6z"/>
		</g>
	</g>
	<g id="Group_179" transform="translate(500.974 272.439)">
		<g id="Group_175" transform="translate(7.605)">
			<rect id="Rectangle_40" x="4.9" y="25.7" class="st0" width="117.3" height="3.1"/>
		</g>
		<g id="Group_176" transform="translate(126.895)">
			<rect id="Rectangle_41" x="7.1" y="25.7" class="st0" width="3.8" height="3.1"/>
		</g>
		<g id="Group_177" transform="translate(134.027)">
			<rect id="Rectangle_42" x="7.2" y="25.7" class="st0" width="3.8" height="3.1"/>
		</g>
		<g id="Group_178">
			<rect id="Rectangle_43" x="4.8" y="25.7" class="st0" width="3.8" height="3.1"/>
		</g>
	</g>
	<g id="Group_180" transform="translate(551.558 185.618)">
		<path id="Path_67" class="st0" d="M51.6,115.7H5.7V81.5h3.1v31h39.7V62c0-1.6-1.3-2.9-2.9-2.9h-2.5v-15c0-1.6-1.3-2.9-2.9-2.9h-5
			v-11c0-1.6-1.3-2.9-2.9-2.9h-7.1c-1.6,0-2.9,1.3-2.9,2.9v10.9h-5c-0.9,0-1.8,0.5-2.4,1.2l-2.5-1.8c1.1-1.6,3-2.5,4.9-2.5H19v-7.8
			c0-3.3,2.7-6,6-6h7.1c3.3,0,6,2.7,6,6V38H40c3.3,0,6,2.7,6,6v12c3.1,0.3,5.4,2.9,5.4,6L51.6,115.7z"/>
	</g>
</g>
</svg>
