<?xml version="1.0" encoding="utf-8"?>
<!-- Generator: Adobe Illustrator 23.0.3, SVG Export Plug-In . SVG Version: 6.00 Build 0)  -->
<svg version="1.1" id="Layer_1" xmlns="http://www.w3.org/2000/svg" xmlns:xlink="http://www.w3.org/1999/xlink" x="0px" y="0px"
	 viewBox="0 0 150 150" style="enable-background:new 0 0 150 150;" xml:space="preserve">
<style type="text/css">
	.st0{fill:#333333;}
</style>
<g id="Group_140" transform="translate(-0.945 -2.337)">
	<g id="Group_127" transform="translate(75.882 2.337)">
		<g id="Group_125">
			<path id="Path_38" class="st0" d="M38.2,126c-0.8,0-1.5-0.6-1.6-1.4c-2.4-14-10.6-22.8-18.5-31.4C9.5,84,1.3,75.3,1.3,60.9
				C1.3,40.5,17.8,24,38.2,24s36.9,16.5,36.9,36.9c0,14.4-8.2,23.1-16.8,32.4c-7.9,8.5-16.1,17.3-18.5,31.4
				C39.7,125.4,39,126,38.2,126z M38.2,27.3c-18.5,0-33.6,15-33.6,33.6C4.6,74,12.3,82.3,20.5,91c6.9,7.5,14.1,15.1,17.7,26.4
				c3.6-11.2,10.7-18.9,17.7-26.4c8.2-8.8,15.9-17.1,15.9-30.2C71.8,42.3,56.7,27.3,38.2,27.3z"/>
		</g>
		<g id="Group_126" transform="translate(22.423 20.952)">
			<path id="Path_39" class="st0" d="M15.8,52.5c-7.8,0-14-6.3-14-14c0-7.8,6.3-14,14-14s14,6.3,14,14
				C29.8,46.2,23.5,52.5,15.8,52.5z M15.8,27.7C9.8,27.7,5,32.5,5,38.4c0,5.9,4.8,10.8,10.8,10.7c5.9,0,10.7-4.8,10.7-10.7
				C26.5,32.5,21.7,27.7,15.8,27.7L15.8,27.7z"/>
		</g>
	</g>
	<g id="Group_132" transform="translate(0.945 99.325)">
		<g id="Group_128" transform="translate(8.048)">
			<rect id="Rectangle_28" x="0.1" y="25.7" class="st0" width="124.1" height="3.3"/>
		</g>
		<g id="Group_129" transform="translate(134.229)">
			<rect id="Rectangle_29" x="2.4" y="25.7" class="st0" width="4.1" height="3.3"/>
		</g>
		<g id="Group_130" transform="translate(141.773)">
			<rect id="Rectangle_30" x="2.5" y="25.7" class="st0" width="4.1" height="3.3"/>
		</g>
		<g id="Group_131">
			<rect id="Rectangle_31" y="25.7" class="st0" width="4.1" height="3.3"/>
		</g>
	</g>
	<g id="Group_138" transform="translate(15.496 10.139)">
		<g id="Group_133" transform="translate(6.604 48.154)">
			<path id="Path_40" class="st0" d="M84.3,70H70.7V36.2l-0.6-0.6H50.4V70h-50l0-43.4C0.4,25.7,1.1,25,2,25c0,0,0,0,0,0l0,0
				c0.9,0,1.6,0.7,1.6,1.6c0,0,0,0,0,0l0,40.1h43.4V32.3h24.3l2.5,2.5v31.9H81l0-19.4c0-0.9,0.7-1.6,1.6-1.6c0,0,0,0,0,0l0,0
				c0.9,0,1.6,0.7,1.6,1.6L84.3,70z M38.4,54.2H16.5V32.3h21.9V54.2z M19.8,50.9h15.3V35.6H19.8V50.9z"/>
		</g>
		<g id="Group_135">
			<g id="Group_134">
				<path id="Path_41" class="st0" d="M8.6,76.4c-0.5,0-0.9-0.2-1.2-0.6l-6.7-7.6c-0.3-0.3-0.4-0.8-0.4-1.2c0-0.4,0.2-0.8,0.5-1.1
					l47.1-41.4c0.6-0.5,1.6-0.5,2.2,0l16.4,14.6c0.7,0.6,0.7,1.7,0.1,2.3c-0.6,0.7-1.6,0.7-2.3,0.1L49,28L4.2,67.3l4.5,5.1
					l39.1-34.5c0.6-0.5,1.6-0.5,2.2,0l14.4,13c0.7,0.6,0.7,1.7,0,2.3c-0.6,0.6-1.6,0.7-2.2,0.1L49,41.4L9.7,76
					C9.4,76.3,9,76.4,8.6,76.4z"/>
			</g>
		</g>
		<g id="Group_136" transform="translate(22.455 55.336)">
			<path id="Path_42" class="st0" d="M22.6,47H0.7V25.1h21.9V47z M3.9,43.7h15.3V28.4H3.9V43.7z"/>
		</g>
		<g id="Group_137" transform="translate(39.558 31.019)">
			<path id="Path_43" class="st0" d="M9.4,41.6c-4.7,0-8.5-3.8-8.5-8.5s3.8-8.5,8.5-8.5s8.5,3.8,8.5,8.5l0,0
				C17.9,37.8,14.1,41.6,9.4,41.6z M9.4,28c-2.9,0-5.2,2.3-5.2,5.2c0,2.9,2.3,5.2,5.2,5.2c2.9,0,5.2-2.3,5.2-5.2
				C14.6,30.3,12.3,28,9.4,28C9.4,28,9.4,28,9.4,28L9.4,28z"/>
		</g>
	</g>
	<g id="Group_139" transform="translate(26.498 18.219)">
		<path id="Path_44" class="st0" d="M0.5,52.9V24.3h14.9v15.4L0.5,52.9z M3.7,27.6v18.1l8.4-7.4V27.6H3.7z"/>
	</g>
</g>
</svg>
