<?xml version="1.0" encoding="utf-8"?>
<!-- Generator: Adobe Illustrator 23.0.2, SVG Export Plug-In . SVG Version: 6.00 Build 0)  -->
<svg version="1.1" id="Layer_1" xmlns="http://www.w3.org/2000/svg" xmlns:xlink="http://www.w3.org/1999/xlink" x="0px" y="0px"
	 viewBox="0 0 128 128" style="enable-background:new 0 0 128 128;" xml:space="preserve">
<style type="text/css">
	.st0{fill:#333333;}
</style>
<g id="Group_74" transform="translate(-369.917 -307.873)">
	<g id="Group_59" transform="translate(369.917 334.193)">
		<path id="Path_18" class="st0" d="M93.69,33.47H32.15c-3.85,0.05-7.01-3.04-7.06-6.89s3.04-7.01,6.89-7.06c0.05,0,0.11,0,0.16,0
			h15.78v2.23H32.15c-2.62-0.04-4.77,2.05-4.81,4.67c-0.04,2.62,2.05,4.77,4.67,4.81c0.04,0,0.09,0,0.13,0h61.55V33.47z"/>
	</g>
	<g id="Group_60" transform="translate(444.697 339.715)">
		<rect id="Rectangle_11" x="21.65" y="19.27" class="st0" width="2.23" height="9.01"/>
	</g>
	<g id="Group_61" transform="translate(369.917 341.511)">
		<path id="Path_19" class="st0" d="M93.69,73.59H32.15c-3.85,0-6.97-3.12-6.98-6.97V19.18h2.23v47.44c0,2.62,2.12,4.74,4.74,4.74
			h61.55c2.62,0,4.73-2.12,4.74-4.74v-10.4h2.23v10.4C100.66,70.47,97.54,73.59,93.69,73.59z"/>
	</g>
	<g id="Group_62" transform="translate(441.829 346.485)">
		<path id="Path_20" class="st0" d="M28.75,37.44h-2.23V25.92c0-2.62-2.12-4.73-4.74-4.74v-2.23c3.85,0,6.97,3.12,6.97,6.97
			L28.75,37.44z"/>
	</g>
	<g id="Group_63" transform="translate(419.161 364.721)">
		<path id="Path_21" class="st0" d="M53.67,34.13h-22.8c-4.43,0-8.02-3.59-8.02-8.02c0-4.43,3.59-8.02,8.02-8.02c0,0,0,0,0,0h22.8
			V34.13z M30.87,20.32c-3.19,0-5.79,2.59-5.79,5.78c0,3.19,2.59,5.79,5.78,5.79c0,0,0,0,0.01,0h20.56V20.32H30.87z"/>
	</g>
	<g id="Group_64" transform="translate(423.965 369.277)">
		<path id="Path_22" class="st0" d="M26.3,25.23c-2.03,0-3.68-1.65-3.68-3.68s1.65-3.68,3.68-3.68s3.68,1.65,3.68,3.68v0
			C29.98,23.58,28.33,25.23,26.3,25.23z M26.3,20.11c-0.8,0-1.44,0.65-1.44,1.44s0.65,1.44,1.44,1.44c0.8,0,1.44-0.65,1.44-1.44
			C27.75,20.75,27.1,20.1,26.3,20.11L26.3,20.11L26.3,20.11z"/>
	</g>
	<g id="Group_65" transform="translate(376.581 340.339)">
		<path id="Path_23" class="st0" d="M35.69,21.47h-9.72c-0.62,0-1.12-0.5-1.12-1.12c0-0.62,0.5-1.12,1.12-1.12h9.72
			c0.62,0,1.12,0.5,1.12,1.12C36.81,20.97,36.31,21.47,35.69,21.47z"/>
	</g>
	<g id="Group_73" transform="translate(381.004 307.873)">
		<g id="Group_66">
			<path id="Path_24" class="st0" d="M26.18,59.49l-1.53-1.62l39.29-37.1l26.08,28.36L79.68,59.47l-1.58-1.58l8.82-8.83l-23.1-25.12
				L26.18,59.49z"/>
		</g>
		<g id="Group_67" transform="translate(21.179 32.418)">
			<path id="Path_25" class="st0" d="M25.88,26.38h-2.23c0-1.91,0.76-3.75,2.11-5.1c2.85-2.72,7.34-2.72,10.19,0
				c1.32,1.32,2.08,3.09,2.11,4.95l-2.23,0.04c-0.02-1.29-0.55-2.51-1.46-3.42c-1.97-1.88-5.06-1.88-7.03,0
				C26.41,23.79,25.88,25.06,25.88,26.38z"/>
		</g>
		<g id="Group_68" transform="translate(10.822 15.371)">
			<path id="Path_26" class="st0" d="M58.52,44.09l-1.58-1.58l4.55-4.55c-1.84-2.53-1.84-5.96,0-8.49l-6.34-6.33
				c-2.53,1.84-5.96,1.84-8.49,0L25.72,44.09l-1.58-1.58l22.47-22.47l0.79,0.79c1.94,1.94,5.09,1.94,7.03,0l0.79-0.79l9.38,9.37
				L63.8,30.2c-1.94,1.94-1.94,5.09,0,7.03l0.79,0.79L58.52,44.09z"/>
		</g>
		<g id="Group_69" transform="translate(36.753 10.344)">
			
				<rect id="Rectangle_12" x="23.39" y="20.71" transform="matrix(0.7066 -0.7076 0.7076 0.7066 -8.268 23.7172)" class="st0" width="2.15" height="2.24"/>
		</g>
		<g id="Group_70" transform="translate(55.05 28.641)">
			
				<rect id="Rectangle_13" x="22.53" y="19.85" transform="matrix(0.7066 -0.7076 0.7076 0.7066 -7.9112 22.8533)" class="st0" width="2.15" height="2.24"/>
		</g>
		<g id="Group_72" transform="translate(37.717 26.859)">
			<g id="Group_71" transform="translate(0 0)">
				
					<rect id="Rectangle_14" x="23.18" y="20.32" transform="matrix(0.7072 -0.7071 0.7071 0.7072 -7.8942 23.8206)" class="st0" width="3.25" height="2.23"/>
			</g>
		</g>
	</g>
</g>
</svg>
