<?xml version="1.0" encoding="utf-8"?>
<!-- Generator: Adobe Illustrator 23.0.2, SVG Export Plug-In . SVG Version: 6.00 Build 0)  -->
<svg version="1.1" id="Layer_1" xmlns="http://www.w3.org/2000/svg" xmlns:xlink="http://www.w3.org/1999/xlink" x="0px" y="0px"
	 viewBox="0 0 128 128" style="enable-background:new 0 0 128 128;" xml:space="preserve">
<style type="text/css">
	.st0{fill:#333333;}
</style>
<g id="Group_84" transform="translate(-501.871 -313.335)">
	<g id="Group_75" transform="translate(501.871 313.335)">
		<path id="Path_27" class="st0" d="M105.91,89.29h-5.63v-2.76h5.63c8.58,0,15.54-6.95,15.55-15.53c0-8.58-6.95-15.54-15.53-15.55
			c0,0-0.01,0-0.01,0c-0.21,0.01-0.41,0.03-0.62,0.06c-0.21,0.03-0.41,0.06-0.62,0.07l-1.8,0.13l0.35-1.77
			c0.32-1.62,0.48-3.27,0.48-4.93c0-14.16-11.47-25.63-25.63-25.64c-9.32,0-17.9,5.05-22.42,13.2L55,37.76l-1.19-0.64
			c-9.72-5.16-21.78-1.46-26.94,8.26c-1.53,2.88-2.32,6.08-2.33,9.34c0,0.38,0.03,0.76,0.06,1.14l0.12,1.68l-2.08-0.11
			c-0.48-0.08-0.97-0.13-1.46-0.14c-8.07,0.01-14.61,6.56-14.6,14.63c0.01,8.06,6.54,14.6,14.6,14.6v2.76
			C11.57,89.29,3.8,81.5,3.81,71.91c0.01-9.59,7.78-17.36,17.36-17.36c0.21,0,0.41,0.01,0.61,0.02
			c0.09-12.53,10.31-22.61,22.83-22.52c3.21,0.02,6.38,0.73,9.3,2.06c8.23-13.34,25.72-17.49,39.07-9.25
			c8.38,5.17,13.48,14.32,13.48,24.17c0,1.23-0.08,2.46-0.25,3.69c10.1,0.18,18.15,8.51,17.97,18.62
			C124.01,81.3,115.89,89.29,105.91,89.29L105.91,89.29z"/>
	</g>
	<g id="Group_76" transform="translate(518.599 376.563)">
		<path id="Path_28" class="st0" d="M17.85,38.16H3.06V17.85h14.79v2.76H5.82v14.8h12.03L17.85,38.16z"/>
	</g>
	<g id="Group_77" transform="translate(563.404 358.354)">
		<path id="Path_29" class="st0" d="M40.13,54.32H29.47v-2.76h7.9V21.4H3.85v4.34H1.09v-7.1h39.03L40.13,54.32z"/>
	</g>
	<g id="Group_78" transform="translate(549.712 342.921)">
		<path id="Path_30" class="st0" d="M4.45,41.18H1.7V19.32h44.67v10.9H43.6v-8.14H4.45L4.45,41.18z"/>
	</g>
	<g id="Group_79" transform="translate(538.535 370.303)">
		<path id="Path_31" class="st0" d="M50.04,50.41H2.19V18.12h47.85V50.41z M4.94,47.65h42.34V20.88H4.94V47.65z"/>
	</g>
	<g id="Group_82" transform="translate(538.503 380.047)">
		<g id="Group_80">
			<path id="Path_32" class="st0" d="M4.11,36.86l-1.92-1.98l17.75-17.18l13.9,12.37l-1.83,2.06L20.02,21.45L4.11,36.86z"/>
		</g>
		<g id="Group_81" transform="translate(26.475 2.667)">
			<path id="Path_33" class="st0" d="M21.02,30.47l-12.5-9.44l-5.83,4.4l-1.66-2.2l7.5-5.66l14.16,10.69L21.02,30.47z"/>
		</g>
	</g>
	<g id="Group_83" transform="translate(614.443 358.477)">
		<path id="Path_34" class="st0" d="M0.8,33.31l-1.95-1.95c2.97-2.97,2.98-7.79,0.01-10.76c0,0-0.01-0.01-0.01-0.01l1.95-1.95
			c4.05,4.05,4.06,10.61,0.01,14.66C0.81,33.3,0.81,33.31,0.8,33.31L0.8,33.31z"/>
	</g>
</g>
</svg>
