<?xml version="1.0" encoding="utf-8"?>
<!-- Generator: Adobe Illustrator 23.0.2, SVG Export Plug-In . SVG Version: 6.00 Build 0)  -->
<svg version="1.1" id="Layer_1" xmlns="http://www.w3.org/2000/svg" xmlns:xlink="http://www.w3.org/1999/xlink" x="0px" y="0px"
	 viewBox="0 0 128 128" style="enable-background:new 0 0 128 128;" xml:space="preserve">
<style type="text/css">
	.st0{fill:#333333;}
</style>
<g id="Group_84" transform="translate(-501.871 -313.335)">
	<g id="Group_75" transform="translate(501.871 313.335)">
		<path id="Path_27" class="st0" d="M102.3,62.8h-5.1v-2.5h5.1c7.8,0,14.2-6.4,14.2-14.2c0-7.8-6.4-14.2-14.2-14.2h0
			c-0.2,0-0.4,0-0.6,0.1c-0.2,0-0.4,0.1-0.6,0.1l-1.6,0.1l0.3-1.6c0.3-1.5,0.4-3,0.4-4.5c0-13-10.5-23.4-23.4-23.5
			c-8.5,0-16.4,4.6-20.5,12.1l-0.6,1.1l-1.1-0.6c-8.9-4.7-19.9-1.3-24.6,7.6c-1.4,2.6-2.1,5.6-2.1,8.5c0,0.3,0,0.7,0.1,1l0.1,1.5
			l-1.9-0.1c-0.4-0.1-0.9-0.1-1.3-0.1c-7.4,0-13.4,6-13.4,13.4c0,7.4,6,13.4,13.4,13.4v2.5c-8.8,0-15.9-7.1-15.9-15.9
			C9,38.1,16.1,31,24.8,31c0.2,0,0.4,0,0.6,0c0.1-11.5,9.4-20.7,20.9-20.6c2.9,0,5.8,0.7,8.5,1.9c7.5-12.2,23.5-16,35.7-8.5
			C98.2,8.6,102.8,17,102.8,26c0,1.1-0.1,2.3-0.2,3.4c9.2,0.2,16.6,7.8,16.4,17C118.9,55.5,111.5,62.8,102.3,62.8L102.3,62.8z"/>
	</g>
	<g id="Group_76" transform="translate(518.599 376.563)">
		<path id="Path_28" class="st0" d="M20.4,10.6H6.8V-7.9h13.5v2.5h-11V8.1h11V10.6z"/>
	</g>
	<g id="Group_77" transform="translate(563.404 358.354)">
		<path id="Path_29" class="st0" d="M36.9,27h-9.8v-2.5h7.2V-3.1H3.7v4H1.2v-6.5h35.7L36.9,27z"/>
	</g>
	<g id="Group_78" transform="translate(549.712 342.921)">
		<path id="Path_30" class="st0" d="M5.5,16.3H2.9v-20h40.9v10h-2.5v-7.4H5.5V16.3z"/>
	</g>
	<g id="Group_79" transform="translate(538.535 370.303)">
		<path id="Path_31" class="st0" d="M48.1,22.4H4.3V-7.1h43.8C48.1-7.1,48.1,22.4,48.1,22.4z M6.9,19.9h38.7V-4.6H6.9V19.9z"/>
	</g>
	<g id="Group_82" transform="translate(538.503 380.047)">
		<g id="Group_80">
			<path id="Path_32" class="st0" d="M6.1,9.2L4.3,7.4L20.6-8.4L33.3,3l-1.7,1.9l-11-9.8L6.1,9.2z"/>
		</g>
		<g id="Group_81" transform="translate(26.475 2.667)">
			<path id="Path_33" class="st0" d="M19.3,3.1L7.9-5.5l-5.3,4L1-3.5l6.9-5.2l13,9.8L19.3,3.1z"/>
		</g>
	</g>
	<g id="Group_83" transform="translate(614.443 358.477)">
		<path id="Path_34" class="st0" d="M-3.4,7.8L-5.2,6c2.7-2.7,2.7-7.1,0-9.8l0,0l1.8-1.8C0.3-2,0.3,4-3.4,7.8
			C-3.4,7.7-3.4,7.8-3.4,7.8L-3.4,7.8z"/>
	</g>
</g>
</svg>
