<?xml version="1.0" encoding="utf-8"?>
<!-- Generator: Adobe Illustrator 23.0.4, SVG Export Plug-In . SVG Version: 6.00 Build 0)  -->
<svg version="1.1" id="Layer_1" xmlns="http://www.w3.org/2000/svg" xmlns:xlink="http://www.w3.org/1999/xlink" x="0px" y="0px"
	 viewBox="0 0 128 128" style="enable-background:new 0 0 128 128;" xml:space="preserve">
<style type="text/css">
	.st0{fill:#FFFFFF;}
</style>
<g id="Group_58" transform="translate(-301.18 -240.897)">
	<g id="Group_51" transform="translate(306.834 255.55)">
		<g id="Group_47" transform="translate(15.956 40.273)">
			<path id="Path_8" class="st0" d="M39.1,42.1c-2.6,0-4.7-2.1-4.7-4.7v0c0-0.1,0-0.2,0-0.3c-2.6,0.2-4.8-1.7-5-4.3
				c0-0.2,0-0.5,0-0.7c-2.6,0.2-4.8-1.7-5-4.3c0-0.1,0-0.2,0-0.4s0-0.2,0-0.4c-2.6,0.2-4.8-1.7-5-4.3c-0.1-1.4,0.4-2.7,1.4-3.7
				l0.8-0.8l1.6,1.6l-0.8,0.8c-1,1-1,2.5,0,3.4l0,0c1,0.9,2.5,0.9,3.4,0l0.8-0.8l1.6,1.6l-0.8,0.8c-1,0.9-1,2.5,0,3.4
				c0.9,1,2.5,1,3.4,0l0.8-0.8l1.6,1.6l-0.8,0.8c-1,1-1,2.5,0,3.4c1,1,2.5,1,3.4,0l0.8-0.8l1.6,1.6l-0.8,0.8c-0.9,0.9-0.9,2.5,0,3.4
				l0,0c1,1,2.5,1,3.4,0l0,0l0.8-0.8l1.6,1.6l-0.8,0.8C41.6,41.6,40.4,42.1,39.1,42.1z"/>
		</g>
		<g id="Group_48" transform="translate(9.734 10.225)">
			<path id="Path_9" class="st0" d="M52,72.2L52,72.2c-1.2,0-2.4-0.5-3.3-1.4L26.5,48.5c-0.7-0.7-1-1.6-1-2.5v-1.6
				c0-0.3-0.1-0.7-0.4-0.9l-5.4-5.4l18.5-18.5L59,19.8l18.5,18.5l-5.4,5.4c-0.2,0.2-0.4,0.6-0.4,0.9v1.6c0,0.9-0.4,1.8-1,2.5
				L70.4,49l0.8,0.8c1.8,1.8,1.8,4.8,0,6.6c-0.6,0.6-1.4,1.1-2.3,1.3c1.2,1.9,1,4.3-0.6,5.9C67.4,64.5,66.2,65,65,65l0,0
				c-0.6,0-1.2-0.1-1.8-0.4c-0.4,2.6-2.8,4.3-5.3,3.9c-0.4-0.1-0.8-0.2-1.1-0.3C56.3,70.5,54.4,72.2,52,72.2L52,72.2z M22.9,38.1
				l3.8,3.8c0.7,0.7,1,1.6,1,2.5V46c0,0.3,0.1,0.7,0.4,0.9l22.3,22.3c0.5,0.5,1.1,0.7,1.7,0.7l0,0c1.3,0,2.4-1.1,2.4-2.4
				c0-0.6-0.2-1.2-0.7-1.7L43.3,55.3l1.6-1.6l10.4,10.4l0,0l1.4,1.4c1,0.9,2.5,0.9,3.4,0c0.9-0.9,0.9-2.4,0-3.4L48.4,50.3l1.6-1.6
				l11.9,11.9l0,0l1.4,1.4c1,1,2.5,1,3.4,0s0.9-2.5,0-3.4l0,0l-2.1-2.1l-0.1,0L53.4,45.3l1.6-1.6l11.2,11.2c1,0.9,2.5,0.9,3.4,0
				c0.9-1,0.9-2.5,0-3.4l0,0L52,33.9c-0.7-0.7-1-1.6-1-2.5v-1.4c0-0.7-0.6-1.3-1.3-1.3h-0.3c-0.3,0-0.7,0.1-0.9,0.4l-6.5,6.4
				c-0.9,0.9-2.1,1.4-3.3,1.4l0,0c-2.6,0-4.7-2.1-4.7-4.7c0-1.2,0.5-2.4,1.4-3.3l6.9-6.9l-3.2,0L22.9,38.1z M49.4,26.4h0.3
				c2,0,3.5,1.6,3.5,3.5v1.5c0,0.3,0.1,0.7,0.4,0.9l15.2,15.2l0.3-0.3c0.2-0.2,0.4-0.6,0.4-0.9v-1.6c0-0.9,0.4-1.8,1-2.5l3.8-3.8
				L58.1,22l-12.5-0.1L37,30.4c-1,1-1,2.5,0,3.4c0.5,0.5,1.1,0.7,1.7,0.7l0,0c0.6,0,1.3-0.2,1.7-0.7l6.5-6.5
				C47.6,26.8,48.5,26.4,49.4,26.4L49.4,26.4z"/>
		</g>
		<g id="Group_49">
			<path id="Path_10" class="st0" d="M28.2,52.8l-8.1-8.1l24.6-24.6l8.1,8.1L28.2,52.8z M23.3,44.7l4.9,4.9l21.4-21.4l-4.9-4.9
				L23.3,44.7z"/>
		</g>
		<g id="Group_50" transform="translate(45.953 0.186)">
			<path id="Path_11" class="st0" d="M42.5,52.8L17.9,28.1l8.1-8.1l24.6,24.6L42.5,52.8z M21.2,28.1l21.4,21.4l4.9-4.9L26,23.3
				L21.2,28.1z"/>
		</g>
	</g>
	<g id="Group_52" transform="translate(304.673 240.898)">
		<path id="Path_12" class="st0" d="M22.3,48.3l-2.1-0.9c5.6-13.2,17.4-22.9,31.4-25.8c5.8-1.2,11.8-1.2,17.6,0
			c2.8,0.6,5.6,1.4,8.2,2.5l-0.9,2.1c-2.5-1.1-5.1-1.9-7.8-2.4c-5.5-1.1-11.2-1.1-16.7,0c-5.3,1.1-10.3,3.2-14.8,6.2
			C30.6,34.6,25.4,40.9,22.3,48.3L22.3,48.3z"/>
	</g>
	<g id="Group_53" transform="translate(308.899 311.025)">
		<path id="Path_13" class="st0" d="M47.4,37.1c-5.6-1.1-10.9-3.4-15.6-6.6c-4.6-3.1-8.6-7.1-11.8-11.8l1.9-1.3
			c4.5,6.7,10.8,11.9,18.2,15c2.5,1.1,5.1,1.9,7.8,2.4L47.4,37.1z"/>
	</g>
	<g id="Group_54" transform="translate(377.635 286.73)">
		<path id="Path_14" class="st0" d="M18.4,49.5l-1.6-1.6c3.8-3.8,6.8-8.2,8.9-13.2c1.1-2.5,1.9-5.1,2.4-7.8c0.6-2.8,0.8-5.5,0.8-8.4
			h2.3c0,3-0.3,5.9-0.9,8.8C29.1,33,26.9,38.3,23.7,43C22.1,45.3,20.4,47.5,18.4,49.5z"/>
	</g>
	<g id="Group_55" transform="translate(362.726 244.027)">
		<path id="Path_15" class="st0" d="M40,43.9l-0.5-1l2.1-1l1,2l-2.1,1L40,43.9z M37.6,39.4l-0.6-1l1.9-1.2l1.2,1.9l-1.9,1.2
			L37.6,39.4z M34.6,35.3l-0.7-0.9l1.8-1.4l1.4,1.8l-1.8,1.4L34.6,35.3z M31.2,31.5l-0.8-0.8l1.6-1.6l1.6,1.6L32,32.3L31.2,31.5z
			 M27.3,28.2L27.3,28.2l-0.9-0.7l1.4-1.8l0.9,0.7l0,0l0.9,0.7l-1.4,1.8L27.3,28.2z M23.1,25.4l-1-0.6l1.1-2l2,1.1L24,26L23.1,25.4z
			 M18.5,23.2l-1-0.5l0.9-2.1l1,0.5l0,0l1,0.4l-0.9,2.1L18.5,23.2z"/>
	</g>
	<g id="Group_56" transform="translate(301.18 289.978)">
		<path id="Path_16" class="st0" d="M27.7,39.8L27.7,39.8l-0.6-1l1.9-1.3l1.3,1.9l-1.9,1.3L27.7,39.8z M25,35.2l-0.5-1l2-1l0.5,1
			l0,0l0.5,1l-2,1L25,35.2z M22.9,30.2l-0.4-1.1l2.1-0.8l0.8,2.1l-2.1,0.8L22.9,30.2z M21.4,25.1L21.1,24l2.2-0.5l0.5,2.2l-2.2,0.5
			L21.4,25.1z M20.5,19.8L20.5,19.8l-0.1-1.1l2.3-0.2l0.2,2.2l-2.3,0.2L20.5,19.8z"/>
	</g>
	<g id="Group_57" transform="translate(358.362 316.614)">
		<path id="Path_17" class="st0" d="M17.7,28.7l2.2-0.7l0.7,2.2l-1.1,0.3l0,0l-1.1,0.3L17.7,28.7z M22.5,27.1l2.1-0.9l0.9,2.1
			l-2.1,0.9L22.5,27.1z M27.1,24.8l2-1.2l1.2,1.9l-2,1.2L27.1,24.8z M31.3,22.1l1.8-1.4l1.4,1.8l-1.8,1.4L31.3,22.1z M35.2,18.8
			l1.6-1.6l1.6,1.6l-0.8,0.8l0,0l-0.8,0.8L35.2,18.8z"/>
	</g>
</g>
</svg>
