<?xml version="1.0" encoding="utf-8"?>
<!-- Generator: Adobe Illustrator 23.0.2, SVG Export Plug-In . SVG Version: 6.00 Build 0)  -->
<svg version="1.1" id="Layer_1" xmlns="http://www.w3.org/2000/svg" xmlns:xlink="http://www.w3.org/1999/xlink" x="0px" y="0px"
	 viewBox="0 0 128 128" style="enable-background:new 0 0 128 128;" xml:space="preserve">
<style type="text/css">
	.st0{fill:#333333;}
</style>
<g id="Group_46" transform="translate(-432.318 -380.786)">
	<g id="Group_33" transform="translate(500.178 380.786)">
		<g id="Group_31">
			<path id="Path_1" class="st0" d="M28.6,107.41c-0.68,0-1.26-0.49-1.38-1.16C25.21,94.3,18.23,86.8,11.49,79.56
				C4.15,71.68-2.78,64.23-2.78,51.99c-0.01-17.33,14.02-31.39,31.35-31.4s31.39,14.02,31.4,31.35c0,0.02,0,0.04,0,0.05
				c0,12.24-6.93,19.69-14.27,27.57c-6.74,7.24-13.72,14.74-15.73,26.69C29.86,106.92,29.28,107.41,28.6,107.41z M28.6,23.41
				C12.82,23.43,0.03,36.21,0.02,51.99c0,11.15,6.57,18.2,13.52,25.67c5.92,6.36,12.01,12.9,15.06,22.43
				c3.06-9.54,9.14-16.08,15.06-22.43c6.95-7.47,13.52-14.52,13.52-25.67C57.16,36.21,44.37,23.43,28.6,23.41L28.6,23.41z"/>
		</g>
		<g id="Group_32" transform="translate(20.307 18.969)">
			<path id="Path_2" class="st0" d="M8.29,43.69c-6.6,0-11.95-5.35-11.95-11.95S1.69,19.79,8.29,19.79c6.6,0,11.95,5.35,11.95,11.95
				c0,0,0,0,0,0C20.23,38.34,14.89,43.68,8.29,43.69z M8.29,22.58c-5.06,0-9.16,4.1-9.16,9.16c0,5.06,4.1,9.16,9.16,9.16
				c5.06,0,9.16-4.1,9.16-9.15C17.44,26.69,13.35,22.59,8.29,22.58L8.29,22.58z"/>
		</g>
	</g>
	<g id="Group_38" transform="translate(432.318 468.605)">
		<g id="Group_34" transform="translate(7.287)">
			<rect id="Rectangle_7" x="-0.15" y="16.8" class="st0" width="105.63" height="2.79"/>
		</g>
		<g id="Group_35" transform="translate(121.548)">
			<rect id="Rectangle_8" x="-5.11" y="16.8" class="st0" width="3.46" height="2.79"/>
		</g>
		<g id="Group_36" transform="translate(128.379)">
			<rect id="Rectangle_9" x="-5.41" y="16.8" class="st0" width="3.46" height="2.79"/>
		</g>
		<g id="Group_37">
			<rect id="Rectangle_10" x="0.17" y="16.8" class="st0" width="3.46" height="2.79"/>
		</g>
	</g>
	<g id="Group_44" transform="translate(445.498 387.841)">
		<g id="Group_39" transform="translate(5.982 43.604)">
			<path id="Path_3" class="st0" d="M70.78,56.75H59.2V27.94l-0.52-0.51H41.94v29.32H-0.62l-0.04-36.94c0-0.77,0.62-1.4,1.39-1.4
				c0,0,0,0,0,0l0,0c0.77,0,1.4,0.62,1.4,1.39c0,0,0,0,0,0l0.04,34.15h36.98V24.64h20.68l2.17,2.13v27.19h6l0.03-16.51
				c0-0.77,0.63-1.39,1.4-1.39l0,0c0.77,0,1.39,0.63,1.39,1.4L70.78,56.75z M31.7,43.28H13.06V24.64H31.7L31.7,43.28z M15.86,40.48
				H28.9V27.44H15.86L15.86,40.48z"/>
		</g>
		<g id="Group_41">
			<g id="Group_40">
				<path id="Path_4" class="st0" d="M6.71,64.81c-0.4,0-0.79-0.17-1.05-0.47l-5.72-6.48c-0.51-0.58-0.45-1.46,0.13-1.98
					c0,0,0,0,0,0l40.07-35.23c0.53-0.47,1.32-0.46,1.85,0.01L55.96,33.1c0.58,0.51,0.63,1.39,0.11,1.97s-1.39,0.63-1.97,0.11l0,0
					L41.05,23.57L2.96,57.05l3.87,4.39l33.3-29.39c0.53-0.47,1.33-0.46,1.86,0.01l12.24,11.08c0.58,0.51,0.65,1.39,0.14,1.97
					c-0.51,0.58-1.39,0.65-1.97,0.14c-0.01-0.01-0.03-0.02-0.04-0.04L41.05,34.98L7.64,64.46C7.38,64.69,7.05,64.81,6.71,64.81z"/>
			</g>
		</g>
		<g id="Group_42" transform="translate(20.334 50.114)">
			<path id="Path_5" class="st0" d="M17.35,36.77H-1.29V18.13h18.64V36.77z M1.51,33.97h13.05V20.93H1.51V33.97z"/>
		</g>
		<g id="Group_43" transform="translate(35.825 28.089)">
			<path id="Path_6" class="st0" d="M5.23,33.48c-3.97,0-7.2-3.22-7.2-7.2s3.22-7.2,7.2-7.2s7.2,3.22,7.2,7.2v0
				C12.43,30.26,9.21,33.48,5.23,33.48z M5.23,21.88c-2.43,0-4.4,1.97-4.4,4.4c0,2.43,1.97,4.4,4.4,4.4c2.43,0,4.4-1.97,4.4-4.4
				C9.63,23.85,7.66,21.89,5.23,21.88z"/>
		</g>
	</g>
	<g id="Group_45" transform="translate(455.46 395.155)">
		<path id="Path_7" class="st0" d="M-0.84,44.36V19.99h12.71v13.16L-0.84,44.36z M1.96,22.78v15.39l7.13-6.28v-9.1H1.96z"/>
	</g>
</g>
</svg>
