<?xml version="1.0" encoding="utf-8"?>
<!-- Generator: Adobe Illustrator 23.0.4, SVG Export Plug-In . SVG Version: 6.00 Build 0)  -->
<svg version="1.1" id="Layer_1" xmlns="http://www.w3.org/2000/svg" xmlns:xlink="http://www.w3.org/1999/xlink" x="0px" y="0px"
	 viewBox="0 0 128 128" style="enable-background:new 0 0 128 128;" xml:space="preserve">
<style type="text/css">
	.st0{fill:#FFFFFF;}
</style>
<g id="Group_84" transform="translate(-501.871 -313.335)">
	<g id="Group_75" transform="translate(501.871 313.335)">
		<path id="Path_27" class="st0" d="M105.9,89.3h-5.6v-2.8h5.6c8.6,0,15.5-6.9,15.6-15.5c0-8.6-6.9-15.5-15.5-15.5h0
			c-0.2,0-0.4,0-0.6,0.1c-0.2,0-0.4,0.1-0.6,0.1l-1.8,0.1l0.3-1.8c0.3-1.6,0.5-3.3,0.5-4.9c0-14.2-11.5-25.6-25.6-25.6
			c-9.3,0-17.9,5-22.4,13.2L55,37.8l-1.2-0.6C44.1,32,32,35.7,26.9,45.4c-1.5,2.9-2.3,6.1-2.3,9.3c0,0.4,0,0.8,0.1,1.1l0.1,1.7
			l-2.1-0.1c-0.5-0.1-1-0.1-1.5-0.1c-8.1,0-14.6,6.6-14.6,14.6c0,8.1,6.5,14.6,14.6,14.6v2.8c-9.6,0-17.4-7.8-17.4-17.4
			s7.8-17.4,17.4-17.4c0.2,0,0.4,0,0.6,0C21.9,42,32.1,32,44.6,32.1c3.2,0,6.4,0.7,9.3,2.1c8.2-13.3,25.7-17.5,39.1-9.2
			c8.4,5.2,13.5,14.3,13.5,24.2c0,1.2-0.1,2.5-0.2,3.7c10.1,0.2,18.2,8.5,18,18.6C124,81.3,115.9,89.3,105.9,89.3L105.9,89.3z"/>
	</g>
	<g id="Group_76" transform="translate(518.599 376.563)">
		<path id="Path_28" class="st0" d="M17.9,38.2H3.1V17.9h14.8v2.8h-12v14.8h12V38.2z"/>
	</g>
	<g id="Group_77" transform="translate(563.404 358.354)">
		<path id="Path_29" class="st0" d="M40.1,54.3H29.5v-2.8h7.9V21.4H3.8v4.3H1.1v-7.1h39L40.1,54.3z"/>
	</g>
	<g id="Group_78" transform="translate(549.712 342.921)">
		<path id="Path_30" class="st0" d="M4.4,41.2H1.7V19.3h44.7v10.9h-2.8v-8.1H4.4V41.2z"/>
	</g>
	<g id="Group_79" transform="translate(538.535 370.303)">
		<path id="Path_31" class="st0" d="M50,50.4H2.2V18.1H50C50,18.1,50,50.4,50,50.4z M4.9,47.7h42.3V20.9H4.9V47.7z"/>
	</g>
	<g id="Group_82" transform="translate(538.503 380.047)">
		<g id="Group_80">
			<path id="Path_32" class="st0" d="M4.1,36.9l-1.9-2l17.8-17.2l13.9,12.4L32,32.1L20,21.5L4.1,36.9z"/>
		</g>
		<g id="Group_81" transform="translate(26.475 2.667)">
			<path id="Path_33" class="st0" d="M21,30.5L8.5,21l-5.8,4.4L1,23.2l7.5-5.7l14.2,10.7L21,30.5z"/>
		</g>
	</g>
	<g id="Group_83" transform="translate(614.443 358.477)">
		<path id="Path_34" class="st0" d="M0.8,33.3l-2-2c3-3,3-7.8,0-10.8l0,0l2-2C4.9,22.7,4.9,29.2,0.8,33.3
			C0.8,33.3,0.8,33.3,0.8,33.3L0.8,33.3z"/>
	</g>
</g>
</svg>
