<?xml version="1.0" encoding="utf-8"?>
<!-- Generator: Adobe Illustrator 23.0.2, SVG Export Plug-In . SVG Version: 6.00 Build 0)  -->
<svg version="1.1" id="Layer_1" xmlns="http://www.w3.org/2000/svg" xmlns:xlink="http://www.w3.org/1999/xlink" x="0px" y="0px"
	 viewBox="0 0 128 128" style="enable-background:new 0 0 128 128;" xml:space="preserve">
<style type="text/css">
	.st0{fill:#333333;}
</style>
<g id="Group_58" transform="translate(-301.18 -240.897)">
	<g id="Group_51" transform="translate(306.834 255.55)">
		<g id="Group_47" transform="translate(15.956 40.273)">
			<path id="Path_8" class="st0" d="M39.14,42.1c-2.59,0-4.69-2.09-4.69-4.69c0,0,0-0.01,0-0.01c0-0.12,0-0.23,0.01-0.35
				c-2.58,0.19-4.83-1.74-5.03-4.32c-0.02-0.24-0.02-0.48,0-0.71c-2.58,0.2-4.83-1.73-5.04-4.31c-0.01-0.12-0.01-0.25-0.01-0.37
				c0-0.12,0-0.23,0.01-0.35c-2.58,0.19-4.84-1.74-5.03-4.33c-0.1-1.36,0.4-2.7,1.36-3.67l0.81-0.81l1.61,1.61l-0.81,0.81
				c-0.95,0.95-0.95,2.48,0,3.43c0,0,0,0,0,0c0.95,0.94,2.48,0.94,3.42,0l0.81-0.81l1.62,1.6l-0.8,0.8c-0.95,0.94-0.95,2.48,0,3.43
				c0.94,0.95,2.48,0.95,3.43,0l0.81-0.8l1.61,1.61l-0.81,0.8c-0.95,0.95-0.95,2.48,0,3.43c0.95,0.95,2.48,0.95,3.43,0l0.81-0.81
				l1.6,1.61l-0.81,0.8c-0.94,0.94-0.94,2.48,0,3.42c0,0,0,0,0,0c0.95,0.95,2.48,0.95,3.43,0c0,0,0,0,0,0l0.81-0.81l1.61,1.61
				l-0.81,0.81C41.59,41.61,40.39,42.1,39.14,42.1z"/>
		</g>
		<g id="Group_48" transform="translate(9.734 10.225)">
			<path id="Path_9" class="st0" d="M52.05,72.19L52.05,72.19c-1.25,0-2.44-0.49-3.32-1.38L26.45,48.53
				c-0.66-0.67-1.03-1.57-1.04-2.51v-1.6c0-0.34-0.13-0.66-0.37-0.9l-5.4-5.4L38.19,19.6l20.86,0.18l18.52,18.53l-5.4,5.4
				c-0.24,0.24-0.37,0.56-0.37,0.9v1.6c0,0.94-0.37,1.84-1.04,2.5l-0.33,0.33l0.76,0.76c1.83,1.83,1.84,4.8,0.01,6.63
				c-0.63,0.63-1.43,1.07-2.3,1.26c1.24,1.86,1,4.34-0.59,5.93c-0.88,0.88-2.07,1.38-3.32,1.37l0,0c-0.63,0-1.25-0.13-1.83-0.37
				c-0.4,2.56-2.8,4.31-5.35,3.91c-0.38-0.06-0.76-0.17-1.11-0.32C56.33,70.51,54.36,72.19,52.05,72.19L52.05,72.19z M22.86,38.12
				l3.79,3.79c0.67,0.66,1.04,1.56,1.04,2.5v1.6c0,0.34,0.13,0.66,0.37,0.9L50.33,69.2c0.45,0.46,1.07,0.71,1.72,0.71l0,0
				c1.34,0,2.42-1.09,2.42-2.42c0-0.63-0.25-1.24-0.69-1.69L43.33,55.35l1.61-1.61l10.42,10.43l0.03,0.03l1.4,1.41
				c0.95,0.94,2.48,0.93,3.43-0.02c0.92-0.93,0.93-2.43,0.03-3.38L48.37,50.32l1.61-1.61l11.86,11.86l0.04,0.04l1.4,1.4
				c0.95,0.95,2.48,0.95,3.43,0c0.95-0.95,0.95-2.48,0-3.43l0,0l-2.1-2.1l-0.05-0.05L53.4,45.29l1.61-1.61l11.18,11.19
				c0.96,0.93,2.49,0.92,3.43-0.04c0.93-0.96,0.92-2.49-0.04-3.43l0,0L52.05,33.87c-0.67-0.66-1.04-1.57-1.04-2.51v-1.44
				c0-0.7-0.57-1.27-1.27-1.27h-0.32c-0.34,0-0.66,0.13-0.9,0.37l-6.45,6.45c-0.88,0.88-2.07,1.38-3.32,1.37l0,0
				c-2.59,0-4.69-2.1-4.69-4.69c0-1.25,0.5-2.44,1.38-3.32l6.93-6.93l-3.25-0.03L22.86,38.12z M49.42,26.38h0.32
				c1.96,0,3.54,1.59,3.54,3.54v1.45c0,0.34,0.13,0.66,0.37,0.9l15.16,15.17l0.33-0.33c0.24-0.24,0.37-0.56,0.37-0.9v-1.6
				c0-0.94,0.37-1.84,1.04-2.5l3.79-3.79L58.1,22.04l-12.54-0.11l-8.52,8.51c-0.95,0.95-0.95,2.48,0,3.43
				c0.45,0.46,1.07,0.71,1.72,0.71l0,0c0.64,0,1.26-0.25,1.72-0.71l6.46-6.45C47.59,26.76,48.49,26.38,49.42,26.38L49.42,26.38z"/>
		</g>
		<g id="Group_49">
			<path id="Path_10" class="st0" d="M28.18,52.76l-8.08-8.08l24.62-24.61l8.08,8.08L28.18,52.76z M23.33,44.68l4.86,4.87
				l21.4-21.39l-4.86-4.86L23.33,44.68z"/>
		</g>
		<g id="Group_50" transform="translate(45.953 0.186)">
			<path id="Path_11" class="st0" d="M42.55,52.76L17.94,28.14l8.08-8.08l24.61,24.62L42.55,52.76z M21.16,28.14l21.39,21.4
				l4.86-4.86L26.02,23.28L21.16,28.14z"/>
		</g>
	</g>
	<g id="Group_52" transform="translate(304.673 240.898)">
		<path id="Path_12" class="st0" d="M22.3,48.32l-2.1-0.89c5.59-13.25,17.35-22.9,31.44-25.79c5.81-1.18,11.79-1.18,17.6,0
			c2.81,0.57,5.56,1.43,8.2,2.55l-0.88,2.1c-2.5-1.06-5.11-1.87-7.77-2.41c-5.51-1.12-11.18-1.12-16.69,0
			c-5.3,1.09-10.33,3.2-14.81,6.23C30.64,34.6,25.43,40.93,22.3,48.32L22.3,48.32z"/>
	</g>
	<g id="Group_53" transform="translate(308.899 311.025)">
		<path id="Path_13" class="st0" d="M47.43,37.1c-5.59-1.14-10.89-3.38-15.62-6.57c-4.65-3.14-8.65-7.15-11.8-11.8l1.88-1.27
			c4.49,6.66,10.82,11.87,18.22,15c2.5,1.06,5.11,1.86,7.77,2.41L47.43,37.1z"/>
	</g>
	<g id="Group_54" transform="translate(377.635 286.73)">
		<path id="Path_14" class="st0" d="M18.38,49.49l-1.61-1.61c3.78-3.77,6.79-8.24,8.87-13.16c1.06-2.5,1.87-5.11,2.41-7.77
			c0.56-2.75,0.84-5.54,0.84-8.35h2.27c0,2.96-0.3,5.9-0.89,8.8c-1.15,5.59-3.38,10.9-6.57,15.62
			C22.14,45.35,20.36,47.51,18.38,49.49z"/>
	</g>
	<g id="Group_55" transform="translate(362.726 244.027)">
		<path id="Path_15" class="st0" d="M39.97,43.89l-0.48-1.02l2.07-0.95l0.95,2.04l-2.07,0.98L39.97,43.89z M37.56,39.41l-0.61-0.95
			l1.93-1.2l1.2,1.93l-1.93,1.2L37.56,39.41z M34.61,35.27l-0.7-0.89l1.75-1.41l1.43,1.75l-1.77,1.43L34.61,35.27z M31.18,31.52
			l-0.82-0.8l1.57-1.61l1.64,1.57L32,32.32L31.18,31.52z M27.31,28.23L27.31,28.23l-0.91-0.68l1.36-1.82l0.91,0.68l0,0l0.91,0.68
			l-1.36,1.82L27.31,28.23z M23.07,25.41l-0.98-0.57l1.14-1.95l1.98,1.14l-1.16,1.95L23.07,25.41z M18.52,23.16l-1.05-0.45
			l0.89-2.09l1.05,0.45l0,0l1.05,0.43l-0.89,2.09L18.52,23.16z"/>
	</g>
	<g id="Group_56" transform="translate(301.18 289.978)">
		<path id="Path_16" class="st0" d="M27.74,39.79L27.74,39.79l-0.64-0.95l1.86-1.27l1.29,1.89l-1.89,1.27L27.74,39.79z M25.01,35.15
			l-0.52-1l2.02-1.05l0.52,1.02l0,0l0.52,1l-2.04,1.05L25.01,35.15z M22.87,30.25l-0.39-1.07l2.14-0.77l0.77,2.14l-2.14,0.77
			L22.87,30.25z M21.35,25.09L21.1,24l2.23-0.52l0.5,2.23l-2.2,0.5L21.35,25.09z M20.49,19.79L20.49,19.79l-0.11-1.11l2.27-0.23
			l0.23,2.25l-2.27,0.23L20.49,19.79z"/>
	</g>
	<g id="Group_57" transform="translate(358.362 316.614)">
		<path id="Path_17" class="st0" d="M17.68,28.7l2.18-0.66l0.66,2.16l-1.09,0.34l0,0l-1.09,0.32L17.68,28.7z M22.5,27.06l2.09-0.93
			l0.91,2.07l-2.07,0.93L22.5,27.06z M27.06,24.83l1.95-1.16l1.18,1.93l-1.95,1.18L27.06,24.83z M31.33,22.06l1.8-1.39l1.41,1.8
			l-1.8,1.39L31.33,22.06z M35.24,18.81l1.61-1.61l1.59,1.61l-0.8,0.8l0,0l-0.8,0.8L35.24,18.81z"/>
	</g>
</g>
</svg>
