<?xml version="1.0" encoding="utf-8"?>
<!-- Generator: Adobe Illustrator 23.0.2, SVG Export Plug-In . SVG Version: 6.00 Build 0)  -->
<svg version="1.1" id="Layer_1" xmlns="http://www.w3.org/2000/svg" xmlns:xlink="http://www.w3.org/1999/xlink" x="0px" y="0px"
	 viewBox="0 0 128 128" style="enable-background:new 0 0 128 128;" xml:space="preserve">
<style type="text/css">
	.st0{fill:#333333;}
</style>
<g id="Group_74" transform="translate(-369.917 -307.873)">
	<g id="Group_59" transform="translate(369.917 334.193)">
		<path id="Path_18" class="st0" d="M97.3,17.5h-69c-4.3,0.1-7.9-3.4-7.9-7.7s3.4-7.9,7.7-7.9c0.1,0,0.1,0,0.2,0H46v2.5H28.3
			c-2.9,0-5.4,2.3-5.4,5.2c0,2.9,2.3,5.4,5.2,5.4c0,0,0.1,0,0.1,0h69.1V17.5z"/>
	</g>
	<g id="Group_60" transform="translate(444.697 339.715)">
		<rect id="Rectangle_11" x="25.6" y="2.2" class="st0" width="2.5" height="10.1"/>
	</g>
	<g id="Group_61" transform="translate(369.917 341.511)">
		<path id="Path_19" class="st0" d="M97.3,63.4h-69c-4.3,0-7.8-3.5-7.8-7.8V2.3h2.5v53.2c0,2.9,2.4,5.3,5.3,5.3h69.1
			c2.9,0,5.3-2.4,5.3-5.3V43.9h2.5v11.7C105.1,59.9,101.6,63.4,97.3,63.4z"/>
	</g>
	<g id="Group_62" transform="translate(441.829 346.485)">
		<path id="Path_20" class="st0" d="M33.2,23.4h-2.5V10.5c0-2.9-2.4-5.3-5.3-5.3V2.7c4.3,0,7.8,3.5,7.8,7.8V23.4z"/>
	</g>
	<g id="Group_63" transform="translate(419.161 364.721)">
		<path id="Path_21" class="st0" d="M58.4,21.9H32.8c-5,0-9-4-9-9s4-9,9-9l0,0h25.6V21.9z M32.8,6.4c-3.6,0-6.5,2.9-6.5,6.5
			s2.9,6.5,6.5,6.5c0,0,0,0,0,0h23.1v-13H32.8z"/>
	</g>
	<g id="Group_64" transform="translate(423.965 369.277)">
		<path id="Path_22" class="st0" d="M28.3,12.5c-2.3,0-4.1-1.9-4.1-4.1s1.9-4.1,4.1-4.1s4.1,1.9,4.1,4.1l0,0
			C32.4,10.6,30.6,12.5,28.3,12.5z M28.3,6.7c-0.9,0-1.6,0.7-1.6,1.6c0,0.9,0.7,1.6,1.6,1.6c0.9,0,1.6-0.7,1.6-1.6
			C29.9,7.5,29.2,6.7,28.3,6.7L28.3,6.7L28.3,6.7z"/>
	</g>
	<g id="Group_65" transform="translate(376.581 340.339)">
		<path id="Path_23" class="st0" d="M33,4.7H22.1c-0.7,0-1.3-0.6-1.3-1.3s0.6-1.3,1.3-1.3H33c0.7,0,1.3,0.6,1.3,1.3
			C34.3,4.2,33.7,4.7,33,4.7z"/>
	</g>
	<g id="Group_73" transform="translate(381.004 307.873)">
		<g id="Group_66">
			<path id="Path_24" class="st0" d="M22.9,43.4l-1.7-1.8L65.3,0l29.3,31.8L82.9,43.4l-1.8-1.8l9.9-9.9L65.1,3.6L22.9,43.4z"/>
		</g>
		<g id="Group_67" transform="translate(21.179 32.418)">
			<path id="Path_25" class="st0" d="M25.2,10.2h-2.5c0-2.1,0.9-4.2,2.4-5.7c3.2-3.1,8.2-3.1,11.4,0c1.5,1.5,2.3,3.5,2.4,5.6l-2.5,0
				c0-1.4-0.6-2.8-1.6-3.8c-2.2-2.1-5.7-2.1-7.9,0C25.8,7.3,25.2,8.8,25.2,10.2z"/>
		</g>
		<g id="Group_68" transform="translate(10.822 15.371)">
			<path id="Path_26" class="st0" d="M60.5,28l-1.8-1.8l5.1-5.1c-2.1-2.8-2.1-6.7,0-9.5l-7.1-7.1c-2.8,2.1-6.7,2.1-9.5,0L23.7,28
				l-1.8-1.8L47.2,1.1L48,1.9c2.2,2.2,5.7,2.2,7.9,0l0.9-0.9l10.5,10.5l-0.9,0.9c-2.2,2.2-2.2,5.7,0,7.9l0.9,0.9L60.5,28z"/>
		</g>
		<g id="Group_69" transform="translate(36.753 10.344)">
			
				<rect id="Rectangle_12" x="24.3" y="1.2" transform="matrix(0.7066 -0.7076 0.7076 0.7066 5.74 18.7467)" class="st0" width="2.4" height="2.5"/>
		</g>
		<g id="Group_70" transform="translate(55.05 28.641)">
			
				<rect id="Rectangle_13" x="25.5" y="2.5" transform="matrix(0.7066 -0.7076 0.7076 0.7066 5.2182 20.0136)" class="st0" width="2.4" height="2.5"/>
		</g>
		<g id="Group_72" transform="translate(37.717 26.859)">
			<g id="Group_71" transform="translate(0 0)">
				
					<rect id="Rectangle_14" x="24.2" y="2.8" transform="matrix(0.7072 -0.7071 0.7071 0.7072 4.7595 19.5444)" class="st0" width="3.6" height="2.5"/>
			</g>
		</g>
	</g>
</g>
</svg>
