<?xml version="1.0" encoding="utf-8"?>
<!-- Generator: Adobe Illustrator 23.0.4, SVG Export Plug-In . SVG Version: 6.00 Build 0)  -->
<svg version="1.1" id="Layer_1" xmlns="http://www.w3.org/2000/svg" xmlns:xlink="http://www.w3.org/1999/xlink" x="0px" y="0px"
	 viewBox="0 0 128 128" style="enable-background:new 0 0 128 128;" xml:space="preserve">
<style type="text/css">
	.st0{fill:#FFFFFF;}
</style>
<g id="Group_46" transform="translate(-432.318 -380.786)">
	<g id="Group_33" transform="translate(500.178 380.786)">
		<g id="Group_31">
			<path id="Path_1" class="st0" d="M28.6,107.4c-0.7,0-1.3-0.5-1.4-1.2c-2-11.9-9-19.4-15.7-26.7C4.2,71.7-2.8,64.2-2.8,52
				c0-17.3,14-31.4,31.4-31.4S60,34.6,60,51.9c0,0,0,0,0,0c0,12.2-6.9,19.7-14.3,27.6C39,86.8,32,94.3,30,106.2
				C29.9,106.9,29.3,107.4,28.6,107.4z M28.6,23.4C12.8,23.4,0,36.2,0,52c0,11.1,6.6,18.2,13.5,25.7c5.9,6.4,12,12.9,15.1,22.4
				c3.1-9.5,9.1-16.1,15.1-22.4c7-7.5,13.5-14.5,13.5-25.7C57.2,36.2,44.4,23.4,28.6,23.4L28.6,23.4z"/>
		</g>
		<g id="Group_32" transform="translate(20.307 18.969)">
			<path id="Path_2" class="st0" d="M8.3,43.7c-6.6,0-11.9-5.3-11.9-12S1.7,19.8,8.3,19.8s11.9,5.4,11.9,12l0,0
				C20.2,38.3,14.9,43.7,8.3,43.7z M8.3,22.6c-5.1,0-9.2,4.1-9.2,9.2s4.1,9.2,9.2,9.2s9.2-4.1,9.2-9.1C17.4,26.7,13.4,22.6,8.3,22.6
				L8.3,22.6z"/>
		</g>
	</g>
	<g id="Group_38" transform="translate(432.318 468.605)">
		<g id="Group_34" transform="translate(7.287)">
			<rect id="Rectangle_7" x="-0.1" y="16.8" class="st0" width="105.6" height="2.8"/>
		</g>
		<g id="Group_35" transform="translate(121.548)">
			<rect id="Rectangle_8" x="-5.1" y="16.8" class="st0" width="3.5" height="2.8"/>
		</g>
		<g id="Group_36" transform="translate(128.379)">
			<rect id="Rectangle_9" x="-5.4" y="16.8" class="st0" width="3.5" height="2.8"/>
		</g>
		<g id="Group_37">
			<rect id="Rectangle_10" x="0.2" y="16.8" class="st0" width="3.5" height="2.8"/>
		</g>
	</g>
	<g id="Group_44" transform="translate(445.498 387.841)">
		<g id="Group_39" transform="translate(5.982 43.604)">
			<path id="Path_3" class="st0" d="M70.8,56.8H59.2V27.9l-0.5-0.5H41.9v29.3H-0.6l0-36.9c0-0.8,0.6-1.4,1.4-1.4l0,0l0,0
				c0.8,0,1.4,0.6,1.4,1.4l0,0l0,34.2h37V24.6h20.7l2.2,2.1V54h6l0-16.5c0-0.8,0.6-1.4,1.4-1.4l0,0c0.8,0,1.4,0.6,1.4,1.4L70.8,56.8
				z M31.7,43.3H13.1V24.6h18.6V43.3z M15.9,40.5h13v-13h-13V40.5z"/>
		</g>
		<g id="Group_41">
			<g id="Group_40">
				<path id="Path_4" class="st0" d="M6.7,64.8c-0.4,0-0.8-0.2-1.1-0.5l-5.7-6.5c-0.5-0.6-0.4-1.5,0.1-2l0,0l40.1-35.2
					c0.5-0.5,1.3-0.5,1.8,0l14,12.4c0.6,0.5,0.6,1.4,0.1,2s-1.4,0.6-2,0.1l0,0L41,23.6L3,57l3.9,4.4L40.1,32c0.5-0.5,1.3-0.5,1.9,0
					l12.2,11.1c0.6,0.5,0.7,1.4,0.1,2c-0.5,0.6-1.4,0.7-2,0.1c0,0,0,0,0,0L41,35L7.6,64.5C7.4,64.7,7,64.8,6.7,64.8z"/>
			</g>
		</g>
		<g id="Group_42" transform="translate(20.334 50.114)">
			<path id="Path_5" class="st0" d="M17.4,36.8H-1.3V18.1h18.6C17.3,18.1,17.3,36.8,17.4,36.8z M1.5,34h13.1v-13H1.5V34z"/>
		</g>
		<g id="Group_43" transform="translate(35.825 28.089)">
			<path id="Path_6" class="st0" d="M5.2,33.5c-4,0-7.2-3.2-7.2-7.2s3.2-7.2,7.2-7.2s7.2,3.2,7.2,7.2l0,0
				C12.4,30.3,9.2,33.5,5.2,33.5z M5.2,21.9c-2.4,0-4.4,2-4.4,4.4s2,4.4,4.4,4.4s4.4-2,4.4-4.4S7.7,21.9,5.2,21.9z"/>
		</g>
	</g>
	<g id="Group_45" transform="translate(455.46 395.155)">
		<path id="Path_7" class="st0" d="M-0.8,44.4V20h12.7v13.2L-0.8,44.4z M2,22.8v15.4l7.1-6.3v-9.1L2,22.8L2,22.8z"/>
	</g>
</g>
</svg>
