<?xml version="1.0" encoding="utf-8"?>
<!-- Generator: Adobe Illustrator 23.0.2, SVG Export Plug-In . SVG Version: 6.00 Build 0)  -->
<svg version="1.1" id="Layer_1" xmlns="http://www.w3.org/2000/svg" xmlns:xlink="http://www.w3.org/1999/xlink" x="0px" y="0px"
	 viewBox="0 0 128 128" style="enable-background:new 0 0 128 128;" xml:space="preserve">
<style type="text/css">
	.st0{fill:#333333;}
</style>
<g id="Group_58" transform="translate(-301.18 -240.897)">
	<g id="Group_51" transform="translate(306.834 255.55)">
		<g id="Group_47" transform="translate(15.956 40.273)">
			<path id="Path_8" class="st0" d="M38.7,30.6c-2.9,0-5.3-2.3-5.3-5.3v0c0-0.1,0-0.3,0-0.4c-2.9,0.2-5.4-2-5.6-4.8
				c0-0.3,0-0.5,0-0.8c-2.9,0.2-5.4-1.9-5.7-4.8c0-0.1,0-0.3,0-0.4c0-0.1,0-0.3,0-0.4c-2.9,0.2-5.4-2-5.6-4.9
				c-0.1-1.5,0.4-3,1.5-4.1L19,3.8l1.8,1.8l-0.9,0.9c-1.1,1.1-1.1,2.8,0,3.8l0,0c1.1,1.1,2.8,1.1,3.8,0l0.9-0.9l1.8,1.8l-0.9,0.9
				c-1.1,1.1-1.1,2.8,0,3.8c1.1,1.1,2.8,1.1,3.8,0l0.9-0.9l1.8,1.8l-0.9,0.9c-1.1,1.1-1.1,2.8,0,3.8c1.1,1.1,2.8,1.1,3.8,0l0.9-0.9
				l1.8,1.8l-0.9,0.9c-1.1,1.1-1.1,2.8,0,3.8l0,0c1.1,1.1,2.8,1.1,3.8,0l0,0l0.9-0.9l1.8,1.8l-0.9,0.9
				C41.5,30.1,40.1,30.6,38.7,30.6z"/>
		</g>
		<g id="Group_48" transform="translate(9.734 10.225)">
			<path id="Path_9" class="st0" d="M52.5,60.7L52.5,60.7c-1.4,0-2.7-0.5-3.7-1.5l-25-25c-0.7-0.8-1.2-1.8-1.2-2.8v-1.8
				c0-0.4-0.1-0.7-0.4-1l-6.1-6.1L36.9,1.7l23.4,0.2l20.8,20.8L75,28.8c-0.3,0.3-0.4,0.6-0.4,1v1.8c0,1.1-0.4,2.1-1.2,2.8l-0.4,0.4
				l0.9,0.9C76,37.7,76,41,74,43c-0.7,0.7-1.6,1.2-2.6,1.4c1.4,2.1,1.1,4.9-0.7,6.7c-1,1-2.3,1.5-3.7,1.5l0,0
				c-0.7,0-1.4-0.1-2.1-0.4c-0.4,2.9-3.1,4.8-6,4.4c-0.4-0.1-0.9-0.2-1.2-0.4C57.3,58.8,55.1,60.7,52.5,60.7L52.5,60.7z M19.7,22.5
				l4.3,4.3c0.8,0.7,1.2,1.7,1.2,2.8v1.8c0,0.4,0.1,0.7,0.4,1l25,25c0.5,0.5,1.2,0.8,1.9,0.8l0,0c1.5,0,2.7-1.2,2.7-2.7
				c0-0.7-0.3-1.4-0.8-1.9L42.7,41.8l1.8-1.8l11.7,11.7l0,0l1.6,1.6c1.1,1.1,2.8,1,3.8,0c1-1,1-2.7,0-3.8L48.3,36.2l1.8-1.8
				l13.3,13.3l0,0l1.6,1.6c1.1,1.1,2.8,1.1,3.8,0c1.1-1.1,1.1-2.8,0-3.8l0,0l-2.4-2.4L66.5,43L54,30.5l1.8-1.8l12.5,12.6
				c1.1,1,2.8,1,3.8,0c1-1.1,1-2.8,0-3.8l0,0L52.5,17.7c-0.8-0.7-1.2-1.8-1.2-2.8v-1.6c0-0.8-0.6-1.4-1.4-1.4h-0.4
				c-0.4,0-0.7,0.1-1,0.4l-7.2,7.2c-1,1-2.3,1.5-3.7,1.5l0,0c-2.9,0-5.3-2.4-5.3-5.3c0-1.4,0.6-2.7,1.5-3.7l7.8-7.8l-3.6,0
				L19.7,22.5z M49.5,9.3h0.4c2.2,0,4,1.8,4,4v1.6c0,0.4,0.1,0.7,0.4,1l17,17l0.4-0.4c0.3-0.3,0.4-0.6,0.4-1v-1.8
				c0-1.1,0.4-2.1,1.2-2.8l4.3-4.3L59.3,4.5L45.2,4.3l-9.6,9.5c-1.1,1.1-1.1,2.8,0,3.8c0.5,0.5,1.2,0.8,1.9,0.8l0,0
				c0.7,0,1.4-0.3,1.9-0.8l7.2-7.2C47.5,9.8,48.5,9.3,49.5,9.3L49.5,9.3z"/>
		</g>
		<g id="Group_49">
			<path id="Path_10" class="st0" d="M24.5,37.7l-9.1-9.1L43.1,1l9.1,9.1L24.5,37.7z M19.1,28.6l5.5,5.5l24-24l-5.5-5.5L19.1,28.6z"
				/>
		</g>
		<g id="Group_50" transform="translate(45.953 0.186)">
			<path id="Path_11" class="st0" d="M46.2,37.7L18.6,10.1L27.7,1l27.6,27.6L46.2,37.7z M22.2,10.1l24,24l5.5-5.5l-24-24L22.2,10.1z
				"/>
		</g>
	</g>
	<g id="Group_52" transform="translate(304.673 240.898)">
		<path id="Path_12" class="st0" d="M17.7,30.9l-2.4-1C21.6,15.1,34.8,4.2,50.6,1c6.5-1.3,13.2-1.3,19.7,0c3.2,0.6,6.2,1.6,9.2,2.9
			l-1,2.4c-2.8-1.2-5.7-2.1-8.7-2.7c-6.2-1.3-12.5-1.3-18.7,0c-5.9,1.2-11.6,3.6-16.6,7C27,15.5,21.2,22.6,17.7,30.9L17.7,30.9z"/>
	</g>
	<g id="Group_53" transform="translate(308.899 311.025)">
		<path id="Path_13" class="st0" d="M46.4,26.9c-6.3-1.3-12.2-3.8-17.5-7.4c-5.2-3.5-9.7-8-13.2-13.2l2.1-1.4
			c5,7.5,12.1,13.3,20.4,16.8c2.8,1.2,5.7,2.1,8.7,2.7L46.4,26.9z"/>
	</g>
	<g id="Group_54" transform="translate(377.635 286.73)">
		<path id="Path_14" class="st0" d="M22.1,37.8L20.3,36c4.2-4.2,7.6-9.2,9.9-14.8c1.2-2.8,2.1-5.7,2.7-8.7c0.6-3.1,0.9-6.2,0.9-9.4
			h2.5c0,3.3-0.3,6.6-1,9.9c-1.3,6.3-3.8,12.2-7.4,17.5C26.4,33.2,24.4,35.6,22.1,37.8z"/>
	</g>
	<g id="Group_55" transform="translate(362.726 244.027)">
		<path id="Path_15" class="st0" d="M44.5,26.3L44,25.2l2.3-1.1l1.1,2.3l-2.3,1.1L44.5,26.3z M41.8,21.3l-0.7-1.1l2.2-1.3l1.3,2.2
			l-2.2,1.3L41.8,21.3z M38.5,16.7l-0.8-1l2-1.6l1.6,2l-2,1.6L38.5,16.7z M34.7,12.5l-0.9-0.9l1.8-1.8l1.8,1.8l-1.8,1.8L34.7,12.5z
			 M30.3,8.8L30.3,8.8l-1-0.8l1.5-2l1,0.8l0,0l1,0.8l-1.5,2L30.3,8.8z M25.6,5.6L24.5,5l1.3-2.2L28,4.1l-1.3,2.2L25.6,5.6z
			 M20.5,3.1l-1.2-0.5l1-2.3l1.2,0.5l0,0l1.2,0.5l-1,2.3L20.5,3.1z"/>
	</g>
	<g id="Group_56" transform="translate(301.18 289.978)">
		<path id="Path_16" class="st0" d="M23.3,27.3L23.3,27.3l-0.7-1.1l2.1-1.4l1.4,2.1L24,28.4L23.3,27.3z M20.3,22.1L19.7,21l2.3-1.2
			l0.6,1.1l0,0l0.6,1.1l-2.3,1.2L20.3,22.1z M17.9,16.6l-0.4-1.2l2.4-0.9l0.9,2.4l-2.4,0.9L17.9,16.6z M16.2,10.8l-0.3-1.2L18.4,9
			l0.6,2.5l-2.5,0.6L16.2,10.8z M15.2,4.9L15.2,4.9l-0.1-1.2l2.5-0.3l0.3,2.5l-2.5,0.3L15.2,4.9z"/>
	</g>
	<g id="Group_57" transform="translate(358.362 316.614)">
		<path id="Path_17" class="st0" d="M19,18.1l2.4-0.7l0.7,2.4L21,20.2l0,0l-1.2,0.4L19,18.1z M24.4,16.3l2.3-1l1,2.3l-2.3,1
			L24.4,16.3z M29.5,13.8l2.2-1.3l1.3,2.2L30.9,16L29.5,13.8z M34.3,10.7l2-1.6l1.6,2l-2,1.6L34.3,10.7z M38.7,7l1.8-1.8L42.3,7
			l-0.9,0.9l0,0l-0.9,0.9L38.7,7z"/>
	</g>
</g>
</svg>
