<?xml version="1.0" encoding="utf-8"?>
<!-- Generator: Adobe Illustrator 23.0.2, SVG Export Plug-In . SVG Version: 6.00 Build 0)  -->
<svg version="1.1" id="Layer_1" xmlns="http://www.w3.org/2000/svg" xmlns:xlink="http://www.w3.org/1999/xlink" x="0px" y="0px"
	 viewBox="0 0 128 128" style="enable-background:new 0 0 128 128;" xml:space="preserve">
<style type="text/css">
	.st0{fill:#333333;}
</style>
<g id="Group_46" transform="translate(-432.318 -380.786)">
	<g id="Group_33" transform="translate(500.178 380.786)">
		<g id="Group_31">
			<path id="Path_1" class="st0" d="M28.6,86.8c-0.7,0-1.3-0.5-1.4-1.2c-2-11.9-9-19.4-15.7-26.7C4.2,51.1-2.8,43.6-2.8,31.4
				C-2.8,14.1,11.2,0,28.6,0S60,14,60,31.4c0,0,0,0,0,0C60,43.6,53,51.1,45.7,59C39,66.2,32,73.7,30,85.7
				C29.9,86.3,29.3,86.8,28.6,86.8z M28.6,2.8C12.8,2.8,0,15.6,0,31.4c0,11.1,6.6,18.2,13.5,25.7c5.9,6.4,12,12.9,15.1,22.4
				c3.1-9.5,9.1-16.1,15.1-22.4c7-7.5,13.5-14.5,13.5-25.7C57.2,15.6,44.4,2.8,28.6,2.8L28.6,2.8z"/>
		</g>
		<g id="Group_32" transform="translate(20.307 18.969)">
			<path id="Path_2" class="st0" d="M8.3,23.1c-6.6,0-11.9-5.3-11.9-12S1.7-0.8,8.3-0.8s11.9,5.4,11.9,12l0,0
				C20.2,17.8,14.9,23.1,8.3,23.1z M8.3,2c-5.1,0-9.2,4.1-9.2,9.2s4.1,9.2,9.2,9.2s9.2-4.1,9.2-9.2C17.4,6.1,13.4,2,8.3,2L8.3,2z"/>
		</g>
	</g>
	<g id="Group_38" transform="translate(432.318 468.605)">
		<g id="Group_34" transform="translate(7.287)">
			<rect id="Rectangle_7" x="-0.1" y="-3.8" class="st0" width="105.6" height="2.8"/>
		</g>
		<g id="Group_35" transform="translate(121.548)">
			<rect id="Rectangle_8" x="-5.1" y="-3.8" class="st0" width="3.5" height="2.8"/>
		</g>
		<g id="Group_36" transform="translate(128.379)">
			<rect id="Rectangle_9" x="-5.4" y="-3.8" class="st0" width="3.5" height="2.8"/>
		</g>
		<g id="Group_37">
			<rect id="Rectangle_10" x="0.2" y="-3.8" class="st0" width="3.5" height="2.8"/>
		</g>
	</g>
	<g id="Group_44" transform="translate(445.498 387.841)">
		<g id="Group_39" transform="translate(5.982 43.604)">
			<path id="Path_3" class="st0" d="M70.8,36.2H59.2V7.4l-0.5-0.5H41.9v29.3H-0.6l0-36.9c0-0.8,0.6-1.4,1.4-1.4l0,0l0,0
				c0.8,0,1.4,0.6,1.4,1.4l0,0l0,34.2h37V4.1h20.7L62,6.2v27.2h6l0-16.5c0-0.8,0.6-1.4,1.4-1.4l0,0c0.8,0,1.4,0.6,1.4,1.4L70.8,36.2
				z M31.7,22.7H13.1V4.1h18.6V22.7z M15.9,19.9h13v-13h-13V19.9z"/>
		</g>
		<g id="Group_41">
			<g id="Group_40">
				<path id="Path_4" class="st0" d="M6.7,44.2c-0.4,0-0.8-0.2-1.1-0.5l-5.7-6.5c-0.5-0.6-0.4-1.5,0.1-2l0,0L40.1,0.1
					c0.5-0.5,1.3-0.5,1.8,0l14,12.4c0.6,0.5,0.6,1.4,0.1,2s-1.4,0.6-2,0.1l0,0L41,3L3,36.5l3.9,4.4l33.3-29.4c0.5-0.5,1.3-0.5,1.9,0
					l12.2,11.1c0.6,0.5,0.7,1.4,0.1,2c-0.5,0.6-1.4,0.7-2,0.1c0,0,0,0,0,0L41,14.4L7.6,43.9C7.4,44.1,7,44.2,6.7,44.2z"/>
			</g>
		</g>
		<g id="Group_42" transform="translate(20.334 50.114)">
			<path id="Path_5" class="st0" d="M17.4,16.2H-1.3V-2.5h18.6C17.3-2.5,17.3,16.2,17.4,16.2z M1.5,13.4h13.1v-13H1.5V13.4z"/>
		</g>
		<g id="Group_43" transform="translate(35.825 28.089)">
			<path id="Path_6" class="st0" d="M5.2,12.9c-4,0-7.2-3.2-7.2-7.2s3.2-7.2,7.2-7.2s7.2,3.2,7.2,7.2l0,0
				C12.4,9.7,9.2,12.9,5.2,12.9z M5.2,1.3c-2.4,0-4.4,2-4.4,4.4s2,4.4,4.4,4.4s4.4-2,4.4-4.4S7.7,1.3,5.2,1.3z"/>
		</g>
	</g>
	<g id="Group_45" transform="translate(455.46 395.155)">
		<path id="Path_7" class="st0" d="M-0.8,23.8V-0.6h12.7v13.2L-0.8,23.8z M2,2.2v15.4l7.1-6.3V2.2L2,2.2L2,2.2z"/>
	</g>
</g>
</svg>
