<?xml version="1.0" encoding="utf-8"?>
<!-- Generator: Adobe Illustrator 23.0.4, SVG Export Plug-In . SVG Version: 6.00 Build 0)  -->
<svg version="1.1" id="Layer_1" xmlns="http://www.w3.org/2000/svg" xmlns:xlink="http://www.w3.org/1999/xlink" x="0px" y="0px"
	 viewBox="0 0 128 128" style="enable-background:new 0 0 128 128;" xml:space="preserve">
<style type="text/css">
	.st0{fill:#FFFFFF;}
</style>
<g id="Group_74" transform="translate(-369.917 -307.873)">
	<g id="Group_59" transform="translate(369.917 334.193)">
		<path id="Path_18" class="st0" d="M93.7,33.5H32.2c-3.9,0-7-3-7.1-6.9s3-7,6.9-7.1c0.1,0,0.1,0,0.2,0h15.8v2.2H32.2
			c-2.6,0-4.8,2-4.8,4.7c0,2.6,2,4.8,4.7,4.8c0,0,0.1,0,0.1,0h61.5V33.5z"/>
	</g>
	<g id="Group_60" transform="translate(444.697 339.715)">
		<rect id="Rectangle_11" x="21.6" y="19.3" class="st0" width="2.2" height="9"/>
	</g>
	<g id="Group_61" transform="translate(369.917 341.511)">
		<path id="Path_19" class="st0" d="M93.7,73.6H32.2c-3.9,0-7-3.1-7-7V19.2h2.2v47.4c0,2.6,2.1,4.7,4.7,4.7h61.6
			c2.6,0,4.7-2.1,4.7-4.7V56.2h2.2v10.4C100.7,70.5,97.5,73.6,93.7,73.6z"/>
	</g>
	<g id="Group_62" transform="translate(441.829 346.485)">
		<path id="Path_20" class="st0" d="M28.8,37.4h-2.2V25.9c0-2.6-2.1-4.7-4.7-4.7V19c3.9,0,7,3.1,7,7V37.4z"/>
	</g>
	<g id="Group_63" transform="translate(419.161 364.721)">
		<path id="Path_21" class="st0" d="M53.7,34.1H30.9c-4.4,0-8-3.6-8-8s3.6-8,8-8l0,0h22.8V34.1z M30.9,20.3c-3.2,0-5.8,2.6-5.8,5.8
			s2.6,5.8,5.8,5.8c0,0,0,0,0,0h20.6V20.3H30.9z"/>
	</g>
	<g id="Group_64" transform="translate(423.965 369.277)">
		<path id="Path_22" class="st0" d="M26.3,25.2c-2,0-3.7-1.6-3.7-3.7s1.6-3.7,3.7-3.7s3.7,1.6,3.7,3.7l0,0
			C30,23.6,28.3,25.2,26.3,25.2z M26.3,20.1c-0.8,0-1.4,0.6-1.4,1.4s0.6,1.4,1.4,1.4c0.8,0,1.4-0.6,1.4-1.4
			C27.8,20.8,27.1,20.1,26.3,20.1L26.3,20.1L26.3,20.1z"/>
	</g>
	<g id="Group_65" transform="translate(376.581 340.339)">
		<path id="Path_23" class="st0" d="M35.7,21.5H26c-0.6,0-1.1-0.5-1.1-1.1s0.5-1.1,1.1-1.1h9.7c0.6,0,1.1,0.5,1.1,1.1
			C36.8,21,36.3,21.5,35.7,21.5z"/>
	</g>
	<g id="Group_73" transform="translate(381.004 307.873)">
		<g id="Group_66">
			<path id="Path_24" class="st0" d="M26.2,59.5l-1.5-1.6l39.3-37.1L90,49.1L79.7,59.5l-1.6-1.6l8.8-8.8L63.8,23.9L26.2,59.5z"/>
		</g>
		<g id="Group_67" transform="translate(21.179 32.418)">
			<path id="Path_25" class="st0" d="M25.9,26.4h-2.2c0-1.9,0.8-3.8,2.1-5.1c2.9-2.7,7.3-2.7,10.2,0c1.3,1.3,2.1,3.1,2.1,5l-2.2,0
				c0-1.3-0.5-2.5-1.5-3.4c-2-1.9-5.1-1.9-7,0C26.4,23.8,25.9,25.1,25.9,26.4z"/>
		</g>
		<g id="Group_68" transform="translate(10.822 15.371)">
			<path id="Path_26" class="st0" d="M58.5,44.1l-1.6-1.6l4.5-4.5c-1.8-2.5-1.8-6,0-8.5l-6.3-6.3c-2.5,1.8-6,1.8-8.5,0l-20.9,21
				l-1.6-1.6L46.6,20l0.8,0.8c1.9,1.9,5.1,1.9,7,0l0.8-0.8l9.4,9.4l-0.8,0.8c-1.9,1.9-1.9,5.1,0,7l0.8,0.8L58.5,44.1z"/>
		</g>
		<g id="Group_69" transform="translate(36.753 10.344)">
			
				<rect id="Rectangle_12" x="23.4" y="20.7" transform="matrix(0.7066 -0.7076 0.7076 0.7066 -8.2695 23.7172)" class="st0" width="2.1" height="2.2"/>
		</g>
		<g id="Group_70" transform="translate(55.05 28.641)">
			
				<rect id="Rectangle_13" x="22.5" y="19.8" transform="matrix(0.7066 -0.7076 0.7076 0.7066 -7.911 22.8559)" class="st0" width="2.1" height="2.2"/>
		</g>
		<g id="Group_72" transform="translate(37.717 26.859)">
			<g id="Group_71" transform="translate(0 0)">
				
					<rect id="Rectangle_14" x="23.2" y="20.3" transform="matrix(0.7072 -0.7071 0.7071 0.7072 -7.8953 23.8168)" class="st0" width="3.3" height="2.2"/>
			</g>
		</g>
	</g>
</g>
</svg>
