<?xml version="1.0" encoding="utf-8"?>
<!-- Generator: Adobe Illustrator 23.0.2, SVG Export Plug-In . SVG Version: 6.00 Build 0)  -->
<svg version="1.1" id="Layer_1" xmlns="http://www.w3.org/2000/svg" xmlns:xlink="http://www.w3.org/1999/xlink" x="0px" y="0px"
	 viewBox="0 0 12 12" style="enable-background:new 0 0 12 12;" xml:space="preserve">
<style type="text/css">
	.st0{fill:#333333;}
</style>
<g>
	<path class="st0" d="M11.8,5.1L9.2,7.6l0.6,3.6c0,0.1,0,0.1,0,0.1c0,0.2-0.1,0.4-0.3,0.4c-0.1,0-0.2,0-0.3-0.1L6,9.9l-3.2,1.7
		c-0.1,0.1-0.2,0.1-0.3,0.1c-0.2,0-0.3-0.2-0.3-0.4c0-0.1,0-0.1,0-0.1l0.6-3.6L0.2,5.1C0.1,5,0,4.8,0,4.7c0-0.2,0.2-0.3,0.4-0.3
		L4,3.9l1.6-3.3C5.7,0.4,5.8,0.3,6,0.3c0.2,0,0.3,0.2,0.4,0.3L8,3.9l3.6,0.5c0.2,0,0.4,0.1,0.4,0.3C12,4.8,11.9,5,11.8,5.1z
		 M10.4,5.1l-3-0.4L6,2L4.6,4.7l-3,0.4l2.2,2.1l-0.5,3L6,8.9l2.7,1.4l-0.5-3L10.4,5.1z"/>
</g>
</svg>
